<svg xmlns="http://www.w3.org/2000/svg" viewBox="0 0 36.412 32" width="36.412px" height="32px">
<path fill="#5865f2" d="M 30.8444 2.6799 C 28.4521 1.41 25.9266 0.509 23.3324 0 C 22.9773 0.7359 22.6561 1.493 22.3701 2.2681 C 19.6067 1.7853 16.7965 1.7853 14.0332 2.2681 C 13.747 1.493 13.4258 0.736 13.0709 0 C 10.475 0.5133 7.9478 1.4164 5.5531 2.6867 C 0.799 10.8427 -0.4897 18.7961 0.1546 26.6368 C 2.9387 29.022 6.055 30.836 9.3679 32 C 10.1138 30.8365 10.7739 29.6024 11.3411 28.3105 C 10.2639 27.8439 9.224 27.2683 8.2338 26.5902 C 8.4944 26.3711 8.7492 26.1453 8.9956 25.926 C 14.8294 29.1073 21.5825 29.1073 27.4163 25.926 C 27.6655 26.1619 27.9204 26.3877 28.1781 26.5902 C 27.186 27.2694 26.1443 27.8461 25.065 28.3139 C 25.6315 29.6051 26.2916 30.8382 27.0383 32 C 30.354 30.8407 33.4726 29.0275 36.2572 26.6401 C 37.0134 17.5475 34.9656 9.6671 30.8444 2.6799 Z M 12.1573 21.8148 C 10.3617 21.8148 8.8782 19.9252 8.8782 17.6007 C 8.8782 15.2761 10.3101 13.3698 12.1516 13.3698 C 13.9931 13.3698 15.4652 15.2761 15.4337 17.6007 C 15.4022 19.9252 13.9873 21.8148 12.1573 21.8148 Z M 24.2546 21.8148 C 22.4561 21.8148 20.9782 19.9252 20.9782 17.6007 C 20.9782 15.2761 22.4102 13.3698 24.2546 13.3698 C 26.0989 13.3698 27.5596 15.2761 27.528 17.6007 C 27.4965 19.9252 26.0845 21.8148 24.2546 21.8148 Z" style="transform-origin: 36.4px 32px;"/>
</svg>