<svg version="" id="Camada_1" x="" y="0px&quot; viewbox= &quot;0 0 100 100" style="enable-background:new 0 0 100 100;" width="100px" height="100px" xmlns="http://www.w3.org/2000/svg">
  <defs></defs>
  <style type="text/css">
	.st0{fill:#8EBF31;}
</style>
  <g id="Logo_Goethe" transform="matrix(1, 0, 0, 1, 0, 0)" style="transform-origin: 50px 50px;">
    <g id="Ícone">
      <path id="Círculo_1" class="st0" d="M81.764122,4.0627756c7.8213272,0,14.1706314,6.3443966,14.1706314,14.1706076    c0,7.8311386-6.3493042,14.1755142-14.1706314,14.1755142c-7.8311005,0-14.1705856-6.3443756-14.1705856-14.1755142    C67.5935364,10.4071722,73.9330215,4.0627756,81.764122,4.0627756 M81.764122,36.4716721    c10.0686111,0,18.2333832-8.1647892,18.2333832-18.2382889C99.9975052,8.1647911,91.8327332,0,81.764122,0    C71.6906433,0,63.5258293,8.1647911,63.5258293,18.2333832C63.5258293,28.3068619,71.6906433,36.4716721,81.764122,36.4716721" style="stroke-width: 1.01604px;"></path>
      <path id="Semicírculo_1" class="st0" d="M36.0418282,50.0019913c0-7.7035866,6.2462463-13.9498291,13.9546967-13.9498291    v-3.9891624c-9.9164772,0-17.9536934,8.0224686-17.9536934,17.9389915c0,9.9164772,8.0372162,17.9536896,17.9536934,17.9536896    s17.9341087-8.0372124,17.9341087-17.9536896h-3.954834c0,7.7084503-6.275692,13.9546928-13.9792328,13.9546928    C42.2881165,63.9566841,36.0418282,57.7104416,36.0418282,50.0019913" style="stroke-width: 1.01604px;"></path>
      <path id="Semicírculo_2" class="st0" d="M24.0915203,50.0009575c0,14.3080406,11.5994816,25.9075203,25.9074802,25.9075203    c14.303093,0,25.9320602-11.5995178,25.9320602-25.9075203h-3.9695511c0,12.109787-9.8575897,21.9281578-21.9624672,21.9281578    c-12.1146927,0-21.9281559-9.8183708-21.9281559-21.9281578c0-12.1097641,9.8183689-21.9232044,21.9281559-21.9232044v-3.9842529    c-14.3079987,0-25.9074821,11.5994816-25.9074821,25.9074574" style="stroke-width: 1.01604px;"></path>
      <path id="Semicírculo_3" class="st0" d="M16.0503864,50.0009575c0,18.7485924,15.2010098,33.9447365,33.9446945,33.9447365    c18.7485542,0,33.9103432-15.1961441,33.9103432-33.9447365h-3.9989548c0,16.5062141-13.4051743,29.8868523-29.9113884,29.8868523    S20.113142,66.5071716,20.113142,50.0009575c0-16.5013046,13.3757267-29.881918,29.8819408-29.881918l0.0046577-4.0235157    c-18.7485924,0-33.9496422,15.1568623-33.9496422,33.9054337" style="stroke-width: 1.01604px;"></path>
      <path id="Semicírculo_4" class="st0" d="M49.9980087,8.0033569c-23.1940536,0-41.9966316,18.802578-41.9966316,41.9966545    s18.802578,41.9966316,41.9966316,41.9966316s41.9672318-18.7976685,41.9672318-41.9917259l-3.9891815-0.0046577    c0,20.961525-17.0214233,37.9486008-37.9780083,37.9486008c-20.9615288,0-37.9486008-16.9870758-37.9486008-37.9486008    c0-20.956604,16.987072-37.9485817,37.9486008-37.9485817V8.0036459L49.9980087,8.0033569z" style="stroke-width: 1.01604px;"></path>
      <path id="Semicírculo_5" class="st0" d="M49.9994965,96.0157242c-25.4168491,0-46.0201683-20.6033173-46.0201683-46.0152206    c0-25.4168262,20.6033211-46.0152397,46.0201683-46.0152397V0.0010104C22.3844318,0.0010104,0,22.3854637,0,50.0005035    S22.3844318,100,49.9994965,100c27.6150208,0,49.9994507-22.3844757,49.9994507-49.9994965h-3.9547882    C96.0441589,75.4124069,75.4113922,96.0157242,49.9994965,96.0157242" style="stroke-width: 1.01604px;"></path>
    </g>
  </g>
</svg>